<svg width="97" height="105" viewBox="0 0 97 105" fill="none" xmlns="http://www.w3.org/2000/svg">
<path fill-rule="evenodd" clip-rule="evenodd" d="M24.6536 44.5214C23.714 42.6966 20.3692 40.3653 16.3689 31.2838C4.47075 4.27407 29.6569 8.05048 46.2786 15.0735C57.0008 19.6037 79.0985 33.5709 81.3008 43.3442C82.8636 50.2794 72.6988 46.4768 67.6814 50.4571C67.4745 58.7344 83.7427 61.5489 83.0149 69.6717C72.7558 76.3686 55.6463 66.5505 48.7731 63.7764L47.016 67.288C53.4084 72.6245 72.1029 78.258 81.8699 75.0541C89.0654 72.6937 88.3745 66.648 84.3601 61.8376C81.569 58.4929 75.5758 55.7808 72.6705 52.3968C75.1042 50.7748 78.9529 51.7248 82.2922 50.1703C91.8807 45.7069 78.0914 31.5614 74.5364 28.2775C69.151 23.3033 67.3206 21.9673 60.8938 17.8595C47.4178 9.24712 16.1207 -2.35589 9.7931 14.0683C5.57815 25.0085 16.6996 42.7143 21.827 47.1826C23.1609 46.0069 23.4001 46.3682 24.6539 44.5211L24.6536 44.5214Z" fill="white"/>
<path fill-rule="evenodd" clip-rule="evenodd" d="M27.9393 69.7006C27.0379 65.9468 25.7523 63.171 23.4762 60.9264C21.343 58.8226 18.7506 57.3801 14.7599 57.1482C2.45785 56.4331 1.26684 56.626 3.12668 45.1367C-0.969077 53.7395 -2.93393 58.9942 9.49394 60.391C19.3584 61.4995 20.4025 65.7371 21.6878 75.4292C23.2141 72.0077 24.9084 71.7351 27.9396 69.7008L27.9393 69.7006Z" fill="white"/>
<path fill-rule="evenodd" clip-rule="evenodd" d="M61.987 44.197C63.5405 42.1473 63.7896 41.9646 65.8377 40.3289C64.5203 37.2258 63.0261 37.1452 61.0474 35.5825C57.4729 38.4608 47.8323 50.9244 45.5678 52.1306L50.1467 56.8285L61.987 44.1973V44.197Z" fill="white"/>
<path fill-rule="evenodd" clip-rule="evenodd" d="M22.8539 87.5567C26.1581 84.4029 24.813 84.553 30.1289 82.7294C33.2327 81.6649 35.9665 78.891 33.8292 74.6823C32.1635 71.4022 27.2736 70.8343 24.7982 73.1508C22.6381 75.1722 21.6562 78.9908 21.1144 82.9729C23.4738 84.3098 22.1202 83.1789 21.7615 88.5535L22.8542 87.5567H22.8539Z" fill="white"/>
<path fill-rule="evenodd" clip-rule="evenodd" d="M34.1264 15.453C27.6683 20.1831 42.0905 28.3691 47.0426 24.327C52.4176 19.9399 39.5503 11.4805 34.1264 15.453Z" fill="white"/>
<path fill-rule="evenodd" clip-rule="evenodd" d="M72.9481 23.3788L77.0942 26.4672C81.4929 21.4159 93.9497 5.73211 96.1445 0C91.5055 4.80867 75.3515 18.7404 72.9481 23.3788Z" fill="white"/>
<path fill-rule="evenodd" clip-rule="evenodd" d="M21.805 13.2888C15.7325 15.316 13.2041 25.0972 20.559 23.1836C26.2869 21.6932 29.6086 10.6834 21.805 13.2888Z" fill="white"/>
<path fill-rule="evenodd" clip-rule="evenodd" d="M21.669 27.6068C18.9534 29.4275 19.7854 32.4201 21.6354 35.0141C22.6448 36.4295 25.4841 39.323 27.8806 37.6684C31.8045 34.9594 25.6675 24.9258 21.669 27.6068Z" fill="white"/>
<path fill-rule="evenodd" clip-rule="evenodd" d="M45.63 53.7305C42.6338 55.2535 32.3979 69.1591 32.2674 70.5442C31.9058 74.3922 35.8384 69.169 36.3892 68.5114C38.9063 65.5057 46.1325 58.5874 47.0727 55.6946L45.6297 53.7305H45.63Z" fill="white"/>
<path fill-rule="evenodd" clip-rule="evenodd" d="M39.4548 48.1591C40.1581 40.2845 30.6613 39.1353 29.4781 42.2705C27.9526 46.3122 34.5004 49.9722 39.4548 48.1591Z" fill="white"/>
<path fill-rule="evenodd" clip-rule="evenodd" d="M54.5215 38.1123C57.5281 35.8555 55.1331 37.1557 55.8141 34.2911C56.9108 29.6776 62.6274 33.6894 64.572 35.271C68.0612 38.1088 67.2092 38.4061 68.6435 42.9742C71.0999 38.8161 65.9702 32.8788 63.042 31.3982C57.3329 28.5118 50.3934 31.2324 54.5215 38.1123Z" fill="white"/>
<path d="M41.0613 89.7192L35.9378 102.016C35.8467 102.258 35.7101 102.448 35.5279 102.585C35.3458 102.722 35.1408 102.79 34.9131 102.79C34.5791 102.79 34.3287 102.699 34.1617 102.517C33.9947 102.319 33.9036 102.076 33.8884 101.788C33.8884 101.682 33.9112 101.56 33.9567 101.424L39.7406 87.4421C39.8469 87.184 39.9987 86.9867 40.196 86.8501C40.4085 86.7134 40.6363 86.6527 40.8791 86.6679C41.1069 86.6679 41.3194 86.7362 41.5167 86.8728C41.7141 87.0095 41.8583 87.1992 41.9494 87.4421L47.6649 101.219C47.7257 101.37 47.756 101.522 47.756 101.674C47.756 102.008 47.6422 102.281 47.4144 102.494C47.2019 102.691 46.959 102.79 46.6858 102.79C46.4581 102.79 46.2455 102.722 46.0482 102.585C45.866 102.433 45.7294 102.243 45.6383 102.016L40.4693 89.7875L41.0613 89.7192ZM36.8487 98.7821L37.8734 96.5961H44.3176L44.7047 98.7821H36.8487ZM51.3448 102.699C50.9804 102.699 50.6616 102.592 50.3884 102.38C50.1151 102.152 49.9785 101.871 49.9785 101.537V87.9203C49.9785 87.5863 50.0924 87.3131 50.3201 87.1005C50.5478 86.8728 50.821 86.759 51.1398 86.759H57.5613C58.381 86.759 59.1325 86.9639 59.8156 87.3738C60.4988 87.7685 61.0453 88.3226 61.4551 89.0361C61.8802 89.7344 62.0927 90.539 62.0927 91.4498C62.0927 92.057 61.9713 92.6415 61.7284 93.2032C61.4855 93.7497 61.1591 94.2355 60.7492 94.6605C60.3394 95.0856 59.8763 95.4044 59.3602 95.6169L59.1097 95.1843C59.5803 95.3513 59.9902 95.5942 60.3394 95.9129C60.6885 96.2166 60.9618 96.5809 61.1591 97.006C61.3716 97.4158 61.4855 97.8864 61.5007 98.4178C61.5462 98.8884 61.5842 99.2831 61.6145 99.6019C61.6601 99.9055 61.7208 100.156 61.7967 100.353C61.8726 100.551 62.0092 100.702 62.2066 100.809C62.4798 100.961 62.6468 101.188 62.7075 101.492C62.7834 101.795 62.7227 102.069 62.5254 102.312C62.3888 102.494 62.2142 102.615 62.0016 102.676C61.8043 102.722 61.5994 102.729 61.3868 102.699C61.1743 102.653 60.9921 102.592 60.8403 102.517C60.5974 102.365 60.3469 102.152 60.0889 101.879C59.846 101.591 59.6486 101.196 59.4968 100.695C59.345 100.194 59.2691 99.5335 59.2691 98.7138C59.2691 98.3343 59.2084 98.0079 59.0869 97.7346C58.9655 97.4614 58.7985 97.2413 58.586 97.0743C58.3734 96.8921 58.123 96.7631 57.8345 96.6872C57.5461 96.5961 57.2273 96.5505 56.8781 96.5505H52.0507L52.3695 96.0951V101.537C52.3695 101.871 52.2784 102.152 52.0962 102.38C51.9141 102.592 51.6636 102.699 51.3448 102.699ZM52.0734 94.5695H57.5157C57.8649 94.5543 58.1989 94.4176 58.5177 94.1596C58.8516 93.8863 59.1173 93.522 59.3147 93.0666C59.5272 92.6111 59.6334 92.095 59.6334 91.5181C59.6334 90.7895 59.4133 90.1822 58.9731 89.6964C58.548 89.1955 58.0395 88.945 57.4474 88.945H52.119L52.3695 88.3529V95.0476L52.0734 94.5695ZM65.9789 96.801C65.6601 96.801 65.3869 96.6948 65.1592 96.4822C64.9466 96.2545 64.8404 95.9813 64.8404 95.6625C64.8404 95.3285 64.9466 95.0628 65.1592 94.8655C65.3869 94.6529 65.6601 94.5467 65.9789 94.5467H70.2599C70.5787 94.5467 70.8519 94.6605 71.0797 94.8882C71.3074 95.1008 71.4212 95.374 71.4212 95.708C71.4212 96.0116 71.3074 96.2697 71.0797 96.4822C70.8519 96.6948 70.5787 96.801 70.2599 96.801H65.9789ZM79.6314 102.699C79.2671 102.699 78.9711 102.592 78.7434 102.38C78.5308 102.152 78.4246 101.871 78.4246 101.537V87.8975H80.8611V101.537C80.8611 101.871 80.7396 102.152 80.4967 102.38C80.269 102.592 79.9806 102.699 79.6314 102.699ZM74.4624 88.945C74.1436 88.945 73.8704 88.8463 73.6426 88.649C73.4149 88.4364 73.3011 88.1632 73.3011 87.8292C73.3011 87.5104 73.4149 87.2523 73.6426 87.055C73.8704 86.8576 74.1436 86.759 74.4624 86.759H84.8232C85.142 86.759 85.4077 86.8652 85.6202 87.0778C85.8479 87.2751 85.9618 87.5332 85.9618 87.852C85.9618 88.186 85.8479 88.4516 85.6202 88.649C85.4077 88.8463 85.142 88.945 84.8232 88.945H74.4624Z" fill="white"/>
</svg>
