<svg width="20" height="20" viewBox="0 0 20 20" fill="none" xmlns="http://www.w3.org/2000/svg">
<g clip-path="url(#clip0_1_172)">
<path d="M10 1.66667C6.77502 1.66667 4.16669 4.275 4.16669 7.5C4.16669 10.975 7.85002 15.7667 9.36669 17.5917C9.70002 17.9917 10.3084 17.9917 10.6417 17.5917C12.15 15.7667 15.8334 10.975 15.8334 7.5C15.8334 4.275 13.225 1.66667 10 1.66667ZM10 9.58333C8.85002 9.58333 7.91669 8.65 7.91669 7.5C7.91669 6.35 8.85002 5.41667 10 5.41667C11.15 5.41667 12.0834 6.35 12.0834 7.5C12.0834 8.65 11.15 9.58333 10 9.58333Z" fill="#131415"/>
</g>
<defs>
<clipPath id="clip0_1_172">
<rect width="20" height="20" fill="white"/>
</clipPath>
</defs>
</svg>
