<svg width="76" height="83" viewBox="0 0 76 83" fill="none" xmlns="http://www.w3.org/2000/svg">
<path fill-rule="evenodd" clip-rule="evenodd" d="M19.4881 35.1927C18.7453 33.7503 16.1014 31.9074 12.9392 24.7288C3.534 3.37819 23.443 6.36335 36.5821 11.9149C45.0578 15.4959 62.5254 26.5367 64.2663 34.2622C65.5017 39.7443 57.4667 36.7384 53.5005 39.8848C53.337 46.4278 66.1966 48.6526 65.6213 55.0735C57.5117 60.3672 43.9871 52.6062 38.554 50.4134L37.165 53.1892C42.218 57.4076 56.9956 61.8607 64.7162 59.3281C70.404 57.4623 69.8579 52.6833 66.6846 48.8808C64.4783 46.2369 59.7408 44.093 57.4442 41.4181C59.3681 40.1359 62.4104 40.8868 65.05 39.658C72.6295 36.1299 61.7294 24.9482 58.9192 22.3524C54.6622 18.4204 53.2153 17.3643 48.135 14.1172C37.4826 7.30927 12.743 -1.86263 7.74119 11.1203C4.40937 19.7683 13.2006 33.7643 17.2537 37.2964C18.3081 36.367 18.4972 36.6526 19.4883 35.1925L19.4881 35.1927Z" fill="#131415"/>
<path fill-rule="evenodd" clip-rule="evenodd" d="M22.0854 55.0969C21.3728 52.1296 20.3566 49.9354 18.5574 48.1611C16.8711 46.4981 14.8219 45.3578 11.6673 45.1745C1.94287 44.6092 1.00141 44.7617 2.47157 35.6797C-0.76603 42.4801 -2.3192 46.6338 7.50474 47.7379C15.3024 48.6141 16.1277 51.9638 17.1437 59.6252C18.3502 56.9206 19.6895 56.7051 22.0856 55.0971L22.0854 55.0969Z" fill="url(#paint0_linear_1_175)"/>
<path fill-rule="evenodd" clip-rule="evenodd" d="M48.9992 34.936C50.2272 33.3158 50.4241 33.1714 52.0431 31.8784C51.0017 29.4254 49.8206 29.3617 48.2565 28.1265C45.431 30.4017 37.8103 40.2539 36.0202 41.2074L39.6397 44.9209L48.9992 34.9363V34.936Z" fill="#131415"/>
<path fill-rule="evenodd" clip-rule="evenodd" d="M18.0655 69.2118C20.6774 66.7188 19.6141 66.8374 23.8162 65.3959C26.2697 64.5544 28.4307 62.3618 26.7412 59.0348C25.4245 56.442 21.5592 55.9931 19.6024 57.8242C17.8949 59.4221 17.1188 62.4406 16.6904 65.5884C18.5555 66.6452 17.4856 65.7512 17.202 69.9997L18.0657 69.2118H18.0655Z" fill="url(#paint1_linear_1_175)"/>
<path fill-rule="evenodd" clip-rule="evenodd" d="M26.9761 12.2152C21.8711 15.9543 33.2715 22.425 37.186 19.2299C41.4348 15.762 31.2635 9.07506 26.9761 12.2152Z" fill="#F5A200"/>
<path fill-rule="evenodd" clip-rule="evenodd" d="M57.6638 18.4804L60.9411 20.9217C64.4182 16.9287 74.265 4.5311 75.9999 0C72.3329 3.80114 59.5636 14.8138 57.6638 18.4804Z" fill="#131415"/>
<path fill-rule="evenodd" clip-rule="evenodd" d="M17.2363 10.5047C12.4362 12.1072 10.4375 19.8389 16.2514 18.3264C20.7792 17.1482 23.4048 8.4452 17.2363 10.5047Z" fill="#E30973"/>
<path fill-rule="evenodd" clip-rule="evenodd" d="M17.1288 21.8222C14.9822 23.2614 15.6399 25.627 17.1023 27.6775C17.9001 28.7964 20.1446 31.0836 22.0389 29.7757C25.1407 27.6343 20.2896 19.7029 17.1288 21.8222Z" fill="#0B5FFF" fill-opacity="0.98"/>
<path fill-rule="evenodd" clip-rule="evenodd" d="M36.0694 42.4731C33.701 43.6771 25.6097 54.669 25.5066 55.764C25.2208 58.8057 28.3294 54.6769 28.7648 54.1571C30.7545 51.7812 36.4666 46.3124 37.2098 44.0257L36.0692 42.4731H36.0694Z" fill="#131415"/>
<path fill-rule="evenodd" clip-rule="evenodd" d="M31.1881 38.0684C31.744 31.8437 24.237 30.9353 23.3017 33.4136C22.0959 36.6085 27.2718 39.5017 31.1881 38.0684Z" fill="#21950E"/>
<path fill-rule="evenodd" clip-rule="evenodd" d="M43.098 30.1263C45.4746 28.3423 43.5814 29.3701 44.1197 27.1057C44.9866 23.4589 49.5055 26.6301 51.0427 27.8803C53.8007 30.1236 53.1273 30.3586 54.2611 33.9695C56.2027 30.6826 52.1479 25.9894 49.8332 24.819C45.3203 22.5374 39.8348 24.6879 43.098 30.1263Z" fill="#131415"/>
<path d="M32.458 70.74L28.408 80.46C28.336 80.652 28.228 80.802 28.084 80.91C27.94 81.018 27.778 81.072 27.598 81.072C27.334 81.072 27.136 81 27.004 80.856C26.872 80.7 26.8 80.508 26.788 80.28C26.788 80.196 26.806 80.1 26.842 79.992L31.414 68.94C31.498 68.736 31.618 68.58 31.774 68.472C31.942 68.364 32.122 68.316 32.314 68.328C32.494 68.328 32.662 68.382 32.818 68.49C32.974 68.598 33.088 68.748 33.16 68.94L37.678 79.83C37.726 79.95 37.75 80.07 37.75 80.19C37.75 80.454 37.66 80.67 37.48 80.838C37.312 80.994 37.12 81.072 36.904 81.072C36.724 81.072 36.556 81.018 36.4 80.91C36.256 80.79 36.148 80.64 36.076 80.46L31.99 70.794L32.458 70.74ZM29.128 77.904L29.938 76.176H35.032L35.338 77.904H29.128ZM40.5868 81C40.2988 81 40.0468 80.916 39.8308 80.748C39.6148 80.568 39.5068 80.346 39.5068 80.082V69.318C39.5068 69.054 39.5968 68.838 39.7768 68.67C39.9568 68.49 40.1728 68.4 40.4248 68.4H45.5008C46.1488 68.4 46.7428 68.562 47.2828 68.886C47.8228 69.198 48.2548 69.636 48.5788 70.2C48.9148 70.752 49.0828 71.388 49.0828 72.108C49.0828 72.588 48.9868 73.05 48.7948 73.494C48.6028 73.926 48.3448 74.31 48.0208 74.646C47.6968 74.982 47.3308 75.234 46.9228 75.402L46.7248 75.06C47.0968 75.192 47.4208 75.384 47.6968 75.636C47.9728 75.876 48.1888 76.164 48.3448 76.5C48.5128 76.824 48.6028 77.196 48.6148 77.616C48.6508 77.988 48.6808 78.3 48.7048 78.552C48.7408 78.792 48.7888 78.99 48.8488 79.146C48.9088 79.302 49.0168 79.422 49.1728 79.506C49.3888 79.626 49.5208 79.806 49.5688 80.046C49.6288 80.286 49.5808 80.502 49.4248 80.694C49.3168 80.838 49.1788 80.934 49.0108 80.982C48.8548 81.018 48.6928 81.024 48.5248 81C48.3568 80.964 48.2128 80.916 48.0928 80.856C47.9008 80.736 47.7028 80.568 47.4988 80.352C47.3068 80.124 47.1508 79.812 47.0308 79.416C46.9108 79.02 46.8508 78.498 46.8508 77.85C46.8508 77.55 46.8028 77.292 46.7068 77.076C46.6108 76.86 46.4788 76.686 46.3108 76.554C46.1428 76.41 45.9448 76.308 45.7168 76.248C45.4888 76.176 45.2368 76.14 44.9608 76.14H41.1448L41.3968 75.78V80.082C41.3968 80.346 41.3248 80.568 41.1808 80.748C41.0368 80.916 40.8388 81 40.5868 81ZM41.1628 74.574H45.4648C45.7408 74.562 46.0048 74.454 46.2568 74.25C46.5208 74.034 46.7308 73.746 46.8868 73.386C47.0548 73.026 47.1388 72.618 47.1388 72.162C47.1388 71.586 46.9648 71.106 46.6168 70.722C46.2808 70.326 45.8788 70.128 45.4108 70.128H41.1988L41.3968 69.66V74.952L41.1628 74.574ZM52.1548 76.338C51.9028 76.338 51.6868 76.254 51.5068 76.086C51.3388 75.906 51.2548 75.69 51.2548 75.438C51.2548 75.174 51.3388 74.964 51.5068 74.808C51.6868 74.64 51.9028 74.556 52.1548 74.556H55.5388C55.7908 74.556 56.0068 74.646 56.1868 74.826C56.3668 74.994 56.4568 75.21 56.4568 75.474C56.4568 75.714 56.3668 75.918 56.1868 76.086C56.0068 76.254 55.7908 76.338 55.5388 76.338H52.1548ZM62.9468 81C62.6588 81 62.4248 80.916 62.2448 80.748C62.0768 80.568 61.9928 80.346 61.9928 80.082V69.3H63.9188V80.082C63.9188 80.346 63.8228 80.568 63.6308 80.748C63.4508 80.916 63.2228 81 62.9468 81ZM58.8608 70.128C58.6088 70.128 58.3928 70.05 58.2128 69.894C58.0328 69.726 57.9428 69.51 57.9428 69.246C57.9428 68.994 58.0328 68.79 58.2128 68.634C58.3928 68.478 58.6088 68.4 58.8608 68.4H67.0508C67.3028 68.4 67.5128 68.484 67.6808 68.652C67.8608 68.808 67.9508 69.012 67.9508 69.264C67.9508 69.528 67.8608 69.738 67.6808 69.894C67.5128 70.05 67.3028 70.128 67.0508 70.128H58.8608Z" fill="#EE0382"/>
<defs>
<linearGradient id="paint0_linear_1_175" x1="11.0428" y1="35.6797" x2="11.0428" y2="59.6252" gradientUnits="userSpaceOnUse">
<stop stop-color="#100CEA"/>
<stop offset="1" stop-color="#A10CE7"/>
</linearGradient>
<linearGradient id="paint1_linear_1_175" x1="25.6064" y1="57.7644" x2="16.6488" y2="70.0557" gradientUnits="userSpaceOnUse">
<stop stop-color="#EC5C0B"/>
<stop offset="0.854167" stop-color="#EE0382"/>
</linearGradient>
</defs>
</svg>
