<svg width="24" height="24" viewBox="0 0 24 24" fill="none" xmlns="http://www.w3.org/2000/svg">
<path fill-rule="evenodd" clip-rule="evenodd" d="M11.7388 0C17.1088 0 21.4768 4.368 21.4768 9.738C21.4768 12.2715 20.5045 14.5823 18.9134 16.3165L22.0442 19.4407C22.3372 19.7337 22.3382 20.2077 22.0452 20.5007C21.8992 20.6487 21.7062 20.7217 21.5142 20.7217C21.3232 20.7217 21.1312 20.6487 20.9842 20.5027L17.8156 17.343C16.1489 18.6778 14.0355 19.477 11.7388 19.477C6.36879 19.477 1.99979 15.108 1.99979 9.738C1.99979 4.368 6.36879 0 11.7388 0ZM11.7388 1.5C7.19579 1.5 3.49979 5.195 3.49979 9.738C3.49979 14.281 7.19579 17.977 11.7388 17.977C16.2808 17.977 19.9768 14.281 19.9768 9.738C19.9768 5.195 16.2808 1.5 11.7388 1.5Z" fill="#131415"/>
</svg>
