<svg width="15" height="258" viewBox="0 0 15 258" fill="none" xmlns="http://www.w3.org/2000/svg">
<path d="M1.144 252.442C1.144 251.499 1.35867 250.659 1.788 249.922C2.208 249.185 2.796 248.615 3.552 248.214C4.29867 247.803 5.15267 247.598 6.114 247.598C7.07533 247.598 7.934 247.803 8.69 248.214C9.43667 248.615 10.0247 249.185 10.454 249.922C10.874 250.659 11.084 251.499 11.084 252.442C11.084 253.394 10.874 254.239 10.454 254.976C10.0247 255.713 9.43667 256.287 8.69 256.698C7.934 257.109 7.07533 257.314 6.114 257.314C5.15267 257.314 4.29867 257.109 3.552 256.698C2.796 256.287 2.208 255.713 1.788 254.976C1.35867 254.239 1.144 253.394 1.144 252.442ZM1.704 252.442C1.704 253.31 1.89067 254.066 2.264 254.71C2.628 255.354 3.14133 255.849 3.804 256.194C4.46667 256.539 5.23667 256.712 6.114 256.712C6.982 256.712 7.752 256.539 8.424 256.194C9.08667 255.849 9.60467 255.354 9.978 254.71C10.3513 254.066 10.538 253.31 10.538 252.442C10.538 251.583 10.3513 250.837 9.978 250.202C9.60467 249.558 9.08667 249.063 8.424 248.718C7.752 248.373 6.982 248.2 6.114 248.2C5.23667 248.2 4.46667 248.373 3.804 248.718C3.14133 249.063 2.628 249.558 2.264 250.202C1.89067 250.837 1.704 251.583 1.704 252.442ZM2.866 252.47C2.866 253.03 2.99667 253.543 3.258 254.01C3.51933 254.467 3.89733 254.831 4.392 255.102C4.87733 255.373 5.44667 255.508 6.1 255.508C6.75333 255.508 7.32733 255.373 7.822 255.102C8.30733 254.831 8.68533 254.467 8.956 254.01C9.21733 253.543 9.348 253.03 9.348 252.47C9.348 251.77 9.16133 251.163 8.788 250.65C8.40533 250.137 7.89667 249.787 7.262 249.6V250.776C8.03667 251.056 8.424 251.621 8.424 252.47C8.424 253.03 8.22333 253.487 7.822 253.842C7.42067 254.197 6.85133 254.374 6.114 254.374C5.36733 254.374 4.79333 254.197 4.392 253.842C3.99067 253.487 3.79 253.03 3.79 252.47C3.79 252.059 3.89267 251.705 4.098 251.406C4.294 251.107 4.57867 250.897 4.952 250.776V249.6C4.28933 249.777 3.776 250.123 3.412 250.636C3.048 251.149 2.866 251.761 2.866 252.47ZM6.114 242.578C5.162 242.578 4.308 242.363 3.552 241.934C2.78667 241.504 2.18933 240.921 1.76 240.184C1.33067 239.437 1.116 238.611 1.116 237.706C1.116 236.642 1.37267 235.713 1.886 234.92C2.39933 234.126 3.12733 233.548 4.07 233.184V234.71C3.482 234.98 3.02933 235.372 2.712 235.886C2.39467 236.39 2.236 236.996 2.236 237.706C2.236 238.387 2.39467 238.998 2.712 239.54C3.02933 240.081 3.482 240.506 4.07 240.814C4.64867 241.122 5.33 241.276 6.114 241.276C6.88867 241.276 7.57 241.122 8.158 240.814C8.73667 240.506 9.18467 240.081 9.502 239.54C9.81933 238.998 9.978 238.387 9.978 237.706C9.978 236.996 9.824 236.39 9.516 235.886C9.19867 235.372 8.746 234.98 8.158 234.71V233.184C9.09133 233.548 9.81467 234.126 10.328 234.92C10.832 235.713 11.084 236.642 11.084 237.706C11.084 238.611 10.874 239.437 10.454 240.184C10.0247 240.921 9.432 241.504 8.676 241.934C7.92 242.363 7.066 242.578 6.114 242.578ZM11.126 227.941C11.126 228.66 10.9627 229.313 10.636 229.901C10.3093 230.48 9.84733 230.937 9.25 231.273C8.64333 231.6 7.94333 231.763 7.15 231.763C6.366 231.763 5.67533 231.595 5.078 231.259C4.47133 230.914 4.00933 230.447 3.692 229.859C3.36533 229.271 3.202 228.613 3.202 227.885C3.202 227.157 3.36533 226.499 3.692 225.911C4.00933 225.323 4.46667 224.861 5.064 224.525C5.66133 224.18 6.35667 224.007 7.15 224.007C7.94333 224.007 8.64333 224.185 9.25 224.539C9.84733 224.885 10.3093 225.356 10.636 225.953C10.9627 226.551 11.126 227.213 11.126 227.941ZM10.006 227.941C10.006 227.484 9.89867 227.055 9.684 226.653C9.46933 226.252 9.14733 225.93 8.718 225.687C8.28867 225.435 7.766 225.309 7.15 225.309C6.534 225.309 6.01133 225.431 5.582 225.673C5.15267 225.916 4.83533 226.233 4.63 226.625C4.41533 227.017 4.308 227.442 4.308 227.899C4.308 228.366 4.41533 228.795 4.63 229.187C4.83533 229.57 5.15267 229.878 5.582 230.111C6.01133 230.345 6.534 230.461 7.15 230.461C7.77533 230.461 8.30267 230.349 8.732 230.125C9.16133 229.892 9.48333 229.584 9.698 229.201C9.90333 228.819 10.006 228.399 10.006 227.941ZM4.742 221.058C4.30333 220.806 3.93933 220.433 3.65 219.938C3.35133 219.434 3.202 218.851 3.202 218.188C3.202 217.507 3.36533 216.891 3.692 216.34C4.01867 215.78 4.48067 215.341 5.078 215.024C5.666 214.707 6.352 214.548 7.136 214.548C7.91067 214.548 8.60133 214.707 9.208 215.024C9.81467 215.341 10.286 215.78 10.622 216.34C10.958 216.891 11.126 217.507 11.126 218.188C11.126 218.841 10.9813 219.42 10.692 219.924C10.3933 220.419 10.0247 220.797 9.586 221.058H14.64V222.332H3.328V221.058H4.742ZM7.136 215.85C6.55733 215.85 6.05333 215.967 5.624 216.2C5.19467 216.433 4.868 216.751 4.644 217.152C4.42 217.544 4.308 217.978 4.308 218.454C4.308 218.921 4.42467 219.355 4.658 219.756C4.882 220.148 5.21333 220.465 5.652 220.708C6.08133 220.941 6.58067 221.058 7.15 221.058C7.72867 221.058 8.23733 220.941 8.676 220.708C9.10533 220.465 9.43667 220.148 9.67 219.756C9.894 219.355 10.006 218.921 10.006 218.454C10.006 217.978 9.894 217.544 9.67 217.152C9.43667 216.751 9.10533 216.433 8.676 216.2C8.23733 215.967 7.724 215.85 7.136 215.85ZM3.328 206.263L14.612 210.883V212.199L10.916 210.687L3.328 213.781V212.367L9.544 209.959L3.328 207.579V206.263ZM4.574 203.709C4.13533 203.485 3.79467 203.167 3.552 202.757C3.30933 202.337 3.188 201.828 3.188 201.231H4.504V201.567C4.504 202.995 5.27867 203.709 6.828 203.709H11V204.983H3.328V203.709H4.574ZM2.082 199.102C2.082 199.345 1.998 199.55 1.83 199.718C1.662 199.886 1.45667 199.97 1.214 199.97C0.971333 199.97 0.766 199.886 0.598 199.718C0.43 199.55 0.345999 199.345 0.345999 199.102C0.345999 198.869 0.43 198.673 0.598 198.514C0.766 198.346 0.971333 198.262 1.214 198.262C1.45667 198.262 1.662 198.346 1.83 198.514C1.998 198.673 2.082 198.869 2.082 199.102ZM3.328 198.486H11V199.76H3.328V198.486ZM3.202 193.151C3.202 192.488 3.34667 191.909 3.636 191.415C3.92533 190.911 4.28933 190.537 4.728 190.295H3.328V189.007H11.168C11.868 189.007 12.4887 189.156 13.03 189.455C13.5807 189.753 14.01 190.183 14.318 190.743C14.626 191.293 14.78 191.937 14.78 192.675C14.78 193.683 14.542 194.523 14.066 195.195C13.59 195.867 12.9413 196.263 12.12 196.385V195.125C12.5867 194.985 12.96 194.695 13.24 194.257C13.5293 193.818 13.674 193.291 13.674 192.675C13.674 191.975 13.4547 191.405 13.016 190.967C12.5773 190.519 11.9613 190.295 11.168 190.295H9.558C10.006 190.547 10.3793 190.92 10.678 191.415C10.9767 191.909 11.126 192.488 11.126 193.151C11.126 193.832 10.958 194.453 10.622 195.013C10.286 195.563 9.81467 195.997 9.208 196.315C8.60133 196.632 7.91067 196.791 7.136 196.791C6.352 196.791 5.666 196.632 5.078 196.315C4.48067 195.997 4.01867 195.563 3.692 195.013C3.36533 194.453 3.202 193.832 3.202 193.151ZM7.15 190.295C6.57133 190.295 6.06733 190.411 5.638 190.645C5.20867 190.878 4.882 191.195 4.658 191.597C4.42467 191.989 4.308 192.423 4.308 192.899C4.308 193.375 4.42 193.809 4.644 194.201C4.868 194.593 5.19467 194.905 5.624 195.139C6.05333 195.372 6.55733 195.489 7.136 195.489C7.724 195.489 8.23733 195.372 8.676 195.139C9.10533 194.905 9.43667 194.593 9.67 194.201C9.894 193.809 10.006 193.375 10.006 192.899C10.006 192.423 9.894 191.989 9.67 191.597C9.43667 191.195 9.10533 190.878 8.676 190.645C8.23733 190.411 7.72867 190.295 7.15 190.295ZM3.188 183.046C3.188 182.467 3.314 181.944 3.566 181.478C3.80867 181.011 4.17733 180.647 4.672 180.386C5.16667 180.115 5.76867 179.98 6.478 179.98H11V181.24H6.66C5.89467 181.24 5.31133 181.431 4.91 181.814C4.49933 182.196 4.294 182.719 4.294 183.382C4.294 184.054 4.504 184.59 4.924 184.992C5.344 185.384 5.95533 185.58 6.758 185.58H11V186.854H0.64V185.58H4.42C4.028 185.328 3.72467 184.982 3.51 184.544C3.29533 184.096 3.188 183.596 3.188 183.046ZM4.378 176.345H8.9C9.27333 176.345 9.53933 176.265 9.698 176.107C9.84733 175.948 9.922 175.673 9.922 175.281V174.343H11V175.491C11 176.2 10.8367 176.732 10.51 177.087C10.1833 177.441 9.64667 177.619 8.9 177.619H4.378V178.613H3.328V177.619H1.396V176.345H3.328V174.343H4.378V176.345ZM9.978 169.431C9.026 168.245 8.24667 167.317 7.64 166.645C7.024 165.973 6.38467 165.408 5.722 164.951C5.05 164.484 4.392 164.251 3.748 164.251C3.14133 164.251 2.66533 164.4 2.32 164.699C1.96533 164.988 1.788 165.459 1.788 166.113C1.788 166.747 1.98867 167.242 2.39 167.597C2.782 167.942 3.30933 168.129 3.972 168.157V169.389C2.92667 169.351 2.11933 169.034 1.55 168.437C0.980666 167.839 0.695999 167.069 0.695999 166.127C0.695999 165.165 0.961999 164.405 1.494 163.845C2.026 163.275 2.75867 162.991 3.692 162.991C4.46667 162.991 5.22267 163.224 5.96 163.691C6.688 164.148 7.332 164.671 7.892 165.259C8.44267 165.847 9.08667 166.598 9.824 167.513V162.697H10.888V169.431H9.978ZM5.834 161.224C4.22867 161.224 2.978 160.962 2.082 160.44C1.17667 159.917 0.724 159.002 0.724 157.696C0.724 156.398 1.17667 155.488 2.082 154.966C2.978 154.443 4.22867 154.182 5.834 154.182C7.46733 154.182 8.73667 154.443 9.642 154.966C10.5473 155.488 11 156.398 11 157.696C11 159.002 10.5473 159.917 9.642 160.44C8.73667 160.962 7.46733 161.224 5.834 161.224ZM5.834 155.442C5.022 155.442 4.336 155.498 3.776 155.61C3.20667 155.712 2.74933 155.932 2.404 156.268C2.05867 156.594 1.886 157.07 1.886 157.696C1.886 158.33 2.05867 158.816 2.404 159.152C2.74933 159.478 3.20667 159.698 3.776 159.81C4.336 159.912 5.022 159.964 5.834 159.964C6.674 159.964 7.37867 159.912 7.948 159.81C8.51733 159.698 8.97467 159.478 9.32 159.152C9.66533 158.816 9.838 158.33 9.838 157.696C9.838 157.07 9.66533 156.594 9.32 156.268C8.97467 155.932 8.51733 155.712 7.948 155.61C7.37867 155.498 6.674 155.442 5.834 155.442ZM9.978 152.587C9.026 151.401 8.24667 150.473 7.64 149.801C7.024 149.129 6.38467 148.564 5.722 148.107C5.05 147.64 4.392 147.407 3.748 147.407C3.14133 147.407 2.66533 147.556 2.32 147.855C1.96533 148.144 1.788 148.615 1.788 149.269C1.788 149.903 1.98867 150.398 2.39 150.753C2.782 151.098 3.30933 151.285 3.972 151.313V152.545C2.92667 152.507 2.11933 152.19 1.55 151.593C0.980666 150.995 0.695999 150.225 0.695999 149.283C0.695999 148.321 0.961999 147.561 1.494 147.001C2.026 146.431 2.75867 146.147 3.692 146.147C4.46667 146.147 5.22267 146.38 5.96 146.847C6.688 147.304 7.332 147.827 7.892 148.415C8.44267 149.003 9.08667 149.754 9.824 150.669V145.853H10.888V152.587H9.978ZM9.978 144.534C9.026 143.349 8.24667 142.42 7.64 141.748C7.024 141.076 6.38467 140.511 5.722 140.054C5.05 139.587 4.392 139.354 3.748 139.354C3.14133 139.354 2.66533 139.503 2.32 139.802C1.96533 140.091 1.788 140.563 1.788 141.216C1.788 141.851 1.98867 142.345 2.39 142.7C2.782 143.045 3.30933 143.232 3.972 143.26V144.492C2.92667 144.455 2.11933 144.137 1.55 143.54C0.980666 142.943 0.695999 142.173 0.695999 141.23C0.695999 140.269 0.961999 139.508 1.494 138.948C2.026 138.379 2.75867 138.094 3.692 138.094C4.46667 138.094 5.22267 138.327 5.96 138.794C6.688 139.251 7.332 139.774 7.892 140.362C8.44267 140.95 9.08667 141.701 9.824 142.616V137.8H10.888V144.534H9.978ZM11.084 135.711C11.084 135.954 11 136.159 10.832 136.327C10.664 136.495 10.4587 136.579 10.216 136.579C9.97333 136.579 9.768 136.495 9.6 136.327C9.432 136.159 9.348 135.954 9.348 135.711C9.348 135.478 9.432 135.282 9.6 135.123C9.768 134.955 9.97333 134.871 10.216 134.871C10.4587 134.871 10.664 134.955 10.832 135.123C11 135.282 11.084 135.478 11.084 135.711ZM8.83 123.677L8.83 127.933L11 128.717V130.061L1.298 126.533V125.063L11 121.549V122.893L8.83 123.677ZM7.794 124.041L2.866 125.805L7.794 127.569L7.794 124.041ZM0.64 118.738H11V120.012H0.64V118.738ZM0.64 115.293H11V116.567H0.64V115.293ZM11 104.251L7.01 106.575V108.115H11V109.389H1.242V106.239C1.242 105.501 1.368 104.881 1.62 104.377C1.872 103.863 2.21267 103.481 2.642 103.229C3.07133 102.977 3.56133 102.851 4.112 102.851C4.784 102.851 5.37667 103.047 5.89 103.439C6.40333 103.821 6.744 104.4 6.912 105.175L11 102.725V104.251ZM5.988 108.115V106.239C5.988 105.548 5.82 105.03 5.484 104.685C5.13867 104.339 4.68133 104.167 4.112 104.167C3.53333 104.167 3.08533 104.339 2.768 104.685C2.45067 105.021 2.292 105.539 2.292 106.239V108.115H5.988ZM2.082 100.213C2.082 100.456 1.998 100.661 1.83 100.829C1.662 100.997 1.45667 101.081 1.214 101.081C0.971333 101.081 0.766 100.997 0.598 100.829C0.43 100.661 0.345999 100.456 0.345999 100.213C0.345999 99.9799 0.43 99.7839 0.598 99.6252C0.766 99.4572 0.971333 99.3732 1.214 99.3732C1.45667 99.3732 1.662 99.4572 1.83 99.6252C1.998 99.7839 2.082 99.9799 2.082 100.213ZM3.328 99.5972H11V100.871H3.328V99.5972ZM3.202 94.2619C3.202 93.5992 3.34667 93.0206 3.636 92.5259C3.92533 92.0219 4.28933 91.6486 4.728 91.4059H3.328V90.1179H11.168C11.868 90.1179 12.4887 90.2672 13.03 90.5659C13.5807 90.8646 14.01 91.2939 14.318 91.8539C14.626 92.4046 14.78 93.0486 14.78 93.7859C14.78 94.7939 14.542 95.6339 14.066 96.3059C13.59 96.9779 12.9413 97.3746 12.12 97.4959V96.2359C12.5867 96.0959 12.96 95.8066 13.24 95.3679C13.5293 94.9292 13.674 94.4019 13.674 93.7859C13.674 93.0859 13.4547 92.5166 13.016 92.0779C12.5773 91.6299 11.9613 91.4059 11.168 91.4059H9.558C10.006 91.6579 10.3793 92.0312 10.678 92.5259C10.9767 93.0206 11.126 93.5992 11.126 94.2619C11.126 94.9432 10.958 95.5639 10.622 96.1239C10.286 96.6746 9.81467 97.1086 9.208 97.4259C8.60133 97.7432 7.91067 97.9019 7.136 97.9019C6.352 97.9019 5.666 97.7432 5.078 97.4259C4.48067 97.1086 4.01867 96.6746 3.692 96.1239C3.36533 95.5639 3.202 94.9432 3.202 94.2619ZM7.15 91.4059C6.57133 91.4059 6.06733 91.5226 5.638 91.7559C5.20867 91.9892 4.882 92.3066 4.658 92.7079C4.42467 93.0999 4.308 93.5339 4.308 94.0099C4.308 94.4859 4.42 94.9199 4.644 95.3119C4.868 95.7039 5.19467 96.0166 5.624 96.2499C6.05333 96.4832 6.55733 96.5999 7.136 96.5999C7.724 96.5999 8.23733 96.4832 8.676 96.2499C9.10533 96.0166 9.43667 95.7039 9.67 95.3119C9.894 94.9199 10.006 94.4859 10.006 94.0099C10.006 93.5339 9.894 93.0999 9.67 92.7079C9.43667 92.3066 9.10533 91.9892 8.676 91.7559C8.23733 91.5226 7.72867 91.4059 7.15 91.4059ZM3.188 84.157C3.188 83.5783 3.314 83.0556 3.566 82.589C3.80867 82.1223 4.17733 81.7583 4.672 81.497C5.16667 81.2263 5.76867 81.091 6.478 81.091H11V82.351H6.66C5.89467 82.351 5.31133 82.5423 4.91 82.925C4.49933 83.3076 4.294 83.8303 4.294 84.493C4.294 85.165 4.504 85.7016 4.924 86.103C5.344 86.495 5.95533 86.691 6.758 86.691H11V87.965H0.64V86.691H4.42C4.028 86.439 3.72467 86.0936 3.51 85.655C3.29533 85.207 3.188 84.7076 3.188 84.157ZM4.378 77.4559H8.9C9.27333 77.4559 9.53933 77.3766 9.698 77.2179C9.84733 77.0592 9.922 76.7839 9.922 76.3919V75.4539H11V76.6019C11 77.3112 10.8367 77.8432 10.51 78.1979C10.1833 78.5526 9.64667 78.7299 8.9 78.7299H4.378V79.7239H3.328V78.7299H1.396V77.4559H3.328V75.4539H4.378V77.4559ZM11.126 71.1943C11.126 71.7823 11.028 72.3096 10.832 72.7763C10.6267 73.2429 10.3467 73.6116 9.992 73.8823C9.628 74.1529 9.21267 74.3023 8.746 74.3303V73.0143C9.12867 72.9769 9.44133 72.7996 9.684 72.4823C9.92667 72.1556 10.048 71.7309 10.048 71.2083C10.048 70.7229 9.94067 70.3403 9.726 70.0603C9.51133 69.7803 9.24067 69.6403 8.914 69.6403C8.578 69.6403 8.33067 69.7896 8.172 70.0883C8.004 70.3869 7.84067 70.8489 7.682 71.4743C7.53267 72.0436 7.38333 72.5103 7.234 72.8743C7.07533 73.2289 6.84667 73.5369 6.548 73.7983C6.24 74.0503 5.83867 74.1763 5.344 74.1763C4.952 74.1763 4.59267 74.0596 4.266 73.8263C3.93933 73.5929 3.68267 73.2616 3.496 72.8323C3.3 72.4029 3.202 71.9129 3.202 71.3623C3.202 70.5129 3.41667 69.8269 3.846 69.3043C4.27533 68.7816 4.86333 68.5016 5.61 68.4643L5.61 69.7383C5.20867 69.7663 4.88667 69.9296 4.644 70.2283C4.40133 70.5176 4.28 70.9096 4.28 71.4043C4.28 71.8616 4.378 72.2256 4.574 72.4963C4.77 72.7669 5.02667 72.9023 5.344 72.9023C5.596 72.9023 5.806 72.8229 5.974 72.6643C6.13267 72.4963 6.26333 72.2909 6.366 72.0483C6.45933 71.7963 6.56667 71.4509 6.688 71.0123C6.83733 70.4616 6.98667 70.0136 7.136 69.6683C7.276 69.3229 7.49067 69.0289 7.78 68.7863C8.06933 68.5343 8.44733 68.4036 8.914 68.3943C9.334 68.3943 9.712 68.5109 10.048 68.7443C10.384 68.9776 10.65 69.3089 10.846 69.7383C11.0327 70.1583 11.126 70.6436 11.126 71.1943ZM11 57.7254L7.01 60.0494V61.5894H11V62.8634H1.242V59.7134C1.242 58.9761 1.368 58.3554 1.62 57.8514C1.872 57.3381 2.21267 56.9554 2.642 56.7034C3.07133 56.4514 3.56133 56.3254 4.112 56.3254C4.784 56.3254 5.37667 56.5214 5.89 56.9134C6.40333 57.2961 6.744 57.8747 6.912 58.6494L11 56.1994V57.7254ZM5.988 61.5894V59.7134C5.988 59.0227 5.82 58.5047 5.484 58.1594C5.13867 57.8141 4.68133 57.6414 4.112 57.6414C3.53333 57.6414 3.08533 57.8141 2.768 58.1594C2.45067 58.4954 2.292 59.0134 2.292 59.7134V61.5894H5.988ZM6.87 47.3458C7.11267 47.3458 7.36933 47.3598 7.64 47.3878V53.5198C8.396 53.4732 8.98867 53.2165 9.418 52.7498C9.838 52.2738 10.048 51.6998 10.048 51.0278C10.048 50.4772 9.922 50.0198 9.67 49.6558C9.40867 49.2825 9.06333 49.0212 8.634 48.8718V47.4998C9.37133 47.7052 9.97333 48.1158 10.44 48.7318C10.8973 49.3478 11.126 50.1132 11.126 51.0278C11.126 51.7558 10.9627 52.4092 10.636 52.9878C10.3093 53.5572 9.84733 54.0052 9.25 54.3318C8.64333 54.6585 7.94333 54.8218 7.15 54.8218C6.35667 54.8218 5.66133 54.6632 5.064 54.3458C4.46667 54.0285 4.00933 53.5852 3.692 53.0158C3.36533 52.4372 3.202 51.7745 3.202 51.0278C3.202 50.2998 3.36067 49.6558 3.678 49.0958C3.99533 48.5358 4.434 48.1065 4.994 47.8078C5.54467 47.4998 6.17 47.3458 6.87 47.3458ZM6.604 48.6618C6.11867 48.6618 5.70333 48.7692 5.358 48.9838C5.00333 49.1985 4.73733 49.4925 4.56 49.8658C4.37333 50.2298 4.28 50.6358 4.28 51.0838C4.28 51.7278 4.48533 52.2785 4.896 52.7358C5.30667 53.1838 5.876 53.4405 6.604 53.5058V48.6618ZM11.126 42.9482C11.126 43.5362 11.028 44.0635 10.832 44.5302C10.6267 44.9969 10.3467 45.3655 9.992 45.6362C9.628 45.9069 9.21267 46.0562 8.746 46.0842V44.7682C9.12867 44.7309 9.44133 44.5535 9.684 44.2362C9.92667 43.9095 10.048 43.4849 10.048 42.9622C10.048 42.4769 9.94067 42.0942 9.726 41.8142C9.51133 41.5342 9.24067 41.3942 8.914 41.3942C8.578 41.3942 8.33067 41.5435 8.172 41.8422C8.004 42.1409 7.84067 42.6029 7.682 43.2282C7.53267 43.7975 7.38333 44.2642 7.234 44.6282C7.07533 44.9829 6.84667 45.2909 6.548 45.5522C6.24 45.8042 5.83867 45.9302 5.344 45.9302C4.952 45.9302 4.59267 45.8135 4.266 45.5802C3.93933 45.3469 3.68267 45.0155 3.496 44.5862C3.3 44.1569 3.202 43.6669 3.202 43.1162C3.202 42.2669 3.41667 41.5809 3.846 41.0582C4.27533 40.5355 4.86333 40.2555 5.61 40.2182L5.61 41.4922C5.20867 41.5202 4.88667 41.6835 4.644 41.9822C4.40133 42.2715 4.28 42.6635 4.28 43.1582C4.28 43.6155 4.378 43.9795 4.574 44.2502C4.77 44.5209 5.02667 44.6562 5.344 44.6562C5.596 44.6562 5.806 44.5769 5.974 44.4182C6.13267 44.2502 6.26333 44.0449 6.366 43.8022C6.45933 43.5502 6.56667 43.2049 6.688 42.7662C6.83733 42.2155 6.98667 41.7675 7.136 41.4222C7.276 41.0769 7.49067 40.7829 7.78 40.5402C8.06933 40.2882 8.44733 40.1575 8.914 40.1482C9.334 40.1482 9.712 40.2649 10.048 40.4982C10.384 40.7315 10.65 41.0629 10.846 41.4922C11.0327 41.9122 11.126 42.3975 11.126 42.9482ZM6.87 31.3497C7.11267 31.3497 7.36933 31.3637 7.64 31.3917V37.5237C8.396 37.4771 8.98867 37.2204 9.418 36.7537C9.838 36.2777 10.048 35.7037 10.048 35.0317C10.048 34.4811 9.922 34.0237 9.67 33.6597C9.40867 33.2864 9.06333 33.0251 8.634 32.8757V31.5037C9.37133 31.7091 9.97333 32.1197 10.44 32.7357C10.8973 33.3517 11.126 34.1171 11.126 35.0317C11.126 35.7597 10.9627 36.4131 10.636 36.9917C10.3093 37.5611 9.84733 38.0091 9.25 38.3357C8.64333 38.6624 7.94333 38.8257 7.15 38.8257C6.35667 38.8257 5.66133 38.6671 5.064 38.3497C4.46667 38.0324 4.00933 37.5891 3.692 37.0197C3.36533 36.4411 3.202 35.7784 3.202 35.0317C3.202 34.3037 3.36067 33.6597 3.678 33.0997C3.99533 32.5397 4.434 32.1104 4.994 31.8117C5.54467 31.5037 6.17 31.3497 6.87 31.3497ZM6.604 32.6657C6.11867 32.6657 5.70333 32.7731 5.358 32.9877C5.00333 33.2024 4.73733 33.4964 4.56 33.8697C4.37333 34.2337 4.28 34.6397 4.28 35.0877C4.28 35.7317 4.48533 36.2824 4.896 36.7397C5.30667 37.1877 5.876 37.4444 6.604 37.5097V32.6657ZM4.574 28.3941C4.13533 28.1701 3.79467 27.8528 3.552 27.4421C3.30933 27.0221 3.188 26.5134 3.188 25.9161H4.504V26.2521C4.504 27.6801 5.27867 28.3941 6.828 28.3941H11V29.6681H3.328V28.3941H4.574ZM9.824 21.5894L3.328 19.2094V17.8514L11 20.8614V22.3454L3.328 25.3554V23.9834L9.824 21.5894ZM6.87 9.59778C7.11267 9.59778 7.36933 9.61178 7.64 9.63978L7.64 15.7718C8.396 15.7251 8.98867 15.4684 9.418 15.0018C9.838 14.5258 10.048 13.9518 10.048 13.2798C10.048 12.7291 9.922 12.2718 9.67 11.9078C9.40867 11.5344 9.06333 11.2731 8.634 11.1238V9.75178C9.37133 9.95711 9.97333 10.3678 10.44 10.9838C10.8973 11.5998 11.126 12.3651 11.126 13.2798C11.126 14.0078 10.9627 14.6611 10.636 15.2398C10.3093 15.8091 9.84733 16.2571 9.25 16.5838C8.64333 16.9104 7.94333 17.0738 7.15 17.0738C6.35667 17.0738 5.66133 16.9151 5.064 16.5978C4.46667 16.2804 4.00933 15.8371 3.692 15.2678C3.36533 14.6891 3.202 14.0264 3.202 13.2798C3.202 12.5518 3.36067 11.9078 3.678 11.3478C3.99533 10.7878 4.434 10.3584 4.994 10.0598C5.54467 9.75178 6.17 9.59778 6.87 9.59778ZM6.604 10.9138C6.11867 10.9138 5.70333 11.0211 5.358 11.2358C5.00333 11.4504 4.73733 11.7444 4.56 12.1178C4.37333 12.4818 4.28 12.8878 4.28 13.3358C4.28 13.9798 4.48533 14.5304 4.896 14.9878C5.30667 15.4358 5.876 15.6924 6.604 15.7578L6.604 10.9138ZM7.136 8.39214C6.352 8.39214 5.666 8.23347 5.078 7.91614C4.48067 7.59881 4.01867 7.16481 3.692 6.61414C3.36533 6.05414 3.202 5.42881 3.202 4.73814C3.202 4.14081 3.342 3.58547 3.622 3.07214C3.89267 2.55881 4.252 2.16681 4.7 1.89614H0.64V0.60814H11V1.89614H9.558C10.0153 2.14814 10.3933 2.52147 10.692 3.01614C10.9813 3.51081 11.126 4.08947 11.126 4.75214C11.126 5.43347 10.958 6.05414 10.622 6.61414C10.286 7.16481 9.81467 7.59881 9.208 7.91614C8.60133 8.23347 7.91067 8.39214 7.136 8.39214ZM7.15 1.89614C6.57133 1.89614 6.06733 2.01281 5.638 2.24614C5.20867 2.47947 4.882 2.79681 4.658 3.19814C4.42467 3.59014 4.308 4.02414 4.308 4.50014C4.308 4.97614 4.42 5.41014 4.644 5.80214C4.868 6.19414 5.19467 6.50681 5.624 6.74014C6.05333 6.97347 6.55733 7.09014 7.136 7.09014C7.724 7.09014 8.23733 6.97347 8.676 6.74014C9.10533 6.50681 9.43667 6.19414 9.67 5.80214C9.894 5.41014 10.006 4.97614 10.006 4.50014C10.006 4.02414 9.894 3.59014 9.67 3.19814C9.43667 2.79681 9.10533 2.47947 8.676 2.24614C8.23733 2.01281 7.72867 1.89614 7.15 1.89614Z" fill="#131415"/>
</svg>
